<svg width="130" height="50" viewBox="0 0 130 50" fill="none" xmlns="http://www.w3.org/2000/svg">
<path d="M69.67 17.63C71.04 18.56 72 19.82 72 21.5V24.5H76V21.5C76 19.32 72.43 18.03 69.67 17.63Z" fill="#0BAB9E"/>
<path d="M68 16.5C70.21 16.5 72 14.71 72 12.5C72 10.29 70.21 8.5 68 8.5C67.53 8.5 67.09 8.6 66.67 8.74C67.5 9.77 68 11.08 68 12.5C68 13.92 67.5 15.23 66.67 16.26C67.09 16.4 67.53 16.5 68 16.5Z" fill="#0BAB9E"/>
<path d="M62 16.5C64.21 16.5 66 14.71 66 12.5C66 10.29 64.21 8.5 62 8.5C59.79 8.5 58 10.29 58 12.5C58 14.71 59.79 16.5 62 16.5ZM62 10.5C63.1 10.5 64 11.4 64 12.5C64 13.6 63.1 14.5 62 14.5C60.9 14.5 60 13.6 60 12.5C60 11.4 60.9 10.5 62 10.5Z" fill="#0BAB9E"/>
<path d="M62 17.5C59.33 17.5 54 18.84 54 21.5V24.5H70V21.5C70 18.84 64.67 17.5 62 17.5ZM68 22.5H56V21.51C56.2 20.79 59.3 19.5 62 19.5C64.7 19.5 67.8 20.79 68 21.5V22.5Z" fill="#0BAB9E"/>
<path d="M52.0445 44.608C51.1965 44.608 50.4685 44.432 49.8605 44.08C49.2605 43.728 48.8005 43.228 48.4805 42.58C48.1605 41.924 48.0005 41.152 48.0005 40.264C48.0005 39.376 48.1605 38.608 48.4805 37.96C48.8005 37.312 49.2605 36.812 49.8605 36.46C50.4685 36.108 51.1965 35.932 52.0445 35.932C52.6525 35.932 53.1925 36.024 53.6645 36.208C54.1365 36.384 54.5485 36.644 54.9005 36.988L54.4925 37.888C54.1085 37.552 53.7285 37.312 53.3525 37.168C52.9845 37.016 52.5565 36.94 52.0685 36.94C51.1325 36.94 50.4165 37.228 49.9205 37.804C49.4245 38.38 49.1765 39.2 49.1765 40.264C49.1765 41.328 49.4245 42.152 49.9205 42.736C50.4165 43.312 51.1325 43.6 52.0685 43.6C52.5565 43.6 52.9845 43.528 53.3525 43.384C53.7285 43.232 54.1085 42.988 54.4925 42.652L54.9005 43.54C54.5485 43.884 54.1325 44.148 53.6525 44.332C53.1805 44.516 52.6445 44.608 52.0445 44.608ZM56.1674 44.5V38.464H57.2594V44.5H56.1674ZM56.0714 37.144V35.968H57.3674V37.144H56.0714ZM58.8334 44.5V39.94C58.8334 39.7 58.8254 39.456 58.8094 39.208C58.8014 38.952 58.7814 38.704 58.7494 38.464H59.8054L59.9374 39.976L59.7574 39.988C59.8374 39.62 59.9734 39.316 60.1654 39.076C60.3654 38.828 60.6014 38.648 60.8734 38.536C61.1534 38.416 61.4414 38.356 61.7374 38.356C61.8654 38.356 61.9734 38.36 62.0614 38.368C62.1494 38.376 62.2374 38.396 62.3254 38.428L62.3014 39.4C62.1814 39.352 62.0694 39.324 61.9654 39.316C61.8694 39.3 61.7494 39.292 61.6054 39.292C61.2534 39.292 60.9494 39.372 60.6934 39.532C60.4454 39.692 60.2534 39.904 60.1174 40.168C59.9894 40.432 59.9254 40.716 59.9254 41.02V44.5H58.8334ZM65.5567 44.608C64.9567 44.608 64.4367 44.484 63.9967 44.236C63.5567 43.98 63.2127 43.616 62.9647 43.144C62.7247 42.664 62.6047 42.096 62.6047 41.44C62.6047 40.792 62.7287 40.24 62.9767 39.784C63.2247 39.32 63.5687 38.968 64.0087 38.728C64.4487 38.48 64.9647 38.356 65.5567 38.356C65.9487 38.356 66.3287 38.424 66.6967 38.56C67.0647 38.688 67.3647 38.876 67.5967 39.124L67.2247 39.892C66.9927 39.668 66.7367 39.504 66.4567 39.4C66.1767 39.288 65.9007 39.232 65.6287 39.232C65.0367 39.232 64.5727 39.424 64.2367 39.808C63.9007 40.184 63.7327 40.732 63.7327 41.452C63.7327 42.18 63.9007 42.74 64.2367 43.132C64.5727 43.524 65.0367 43.72 65.6287 43.72C65.8927 43.72 66.1647 43.668 66.4447 43.564C66.7247 43.46 66.9847 43.296 67.2247 43.072L67.5967 43.828C67.3567 44.084 67.0487 44.28 66.6727 44.416C66.3047 44.544 65.9327 44.608 65.5567 44.608ZM68.6896 44.5V35.668H69.7816V44.5H68.6896ZM74.1156 44.608C73.1556 44.608 72.3956 44.332 71.8356 43.78C71.2836 43.228 71.0076 42.468 71.0076 41.5C71.0076 40.86 71.1276 40.308 71.3676 39.844C71.6156 39.372 71.9556 39.008 72.3876 38.752C72.8196 38.488 73.3236 38.356 73.8996 38.356C74.4516 38.356 74.9196 38.476 75.3036 38.716C75.6876 38.948 75.9796 39.28 76.1796 39.712C76.3796 40.144 76.4796 40.656 76.4796 41.248V41.608H71.8596V40.96H75.7356L75.5316 41.116C75.5316 40.492 75.3916 40.008 75.1116 39.664C74.8396 39.32 74.4356 39.148 73.8996 39.148C73.3156 39.148 72.8636 39.352 72.5436 39.76C72.2236 40.16 72.0636 40.708 72.0636 41.404V41.512C72.0636 42.248 72.2436 42.804 72.6036 43.18C72.9716 43.556 73.4796 43.744 74.1276 43.744C74.4876 43.744 74.8236 43.692 75.1356 43.588C75.4476 43.484 75.7476 43.312 76.0356 43.072L76.3956 43.828C76.1236 44.076 75.7836 44.268 75.3756 44.404C74.9756 44.54 74.5556 44.608 74.1156 44.608ZM79.7066 44.608C79.2186 44.608 78.7626 44.544 78.3386 44.416C77.9226 44.288 77.5786 44.104 77.3066 43.864L77.6546 43.108C77.9506 43.332 78.2746 43.504 78.6266 43.624C78.9866 43.736 79.3546 43.792 79.7306 43.792C80.1866 43.792 80.5306 43.708 80.7626 43.54C81.0026 43.372 81.1226 43.148 81.1226 42.868C81.1226 42.644 81.0466 42.464 80.8946 42.328C80.7426 42.192 80.5026 42.092 80.1746 42.028L79.0346 41.8C78.5226 41.68 78.1346 41.488 77.8706 41.224C77.6146 40.952 77.4866 40.604 77.4866 40.18C77.4866 39.828 77.5826 39.516 77.7746 39.244C77.9666 38.964 78.2386 38.748 78.5906 38.596C78.9506 38.436 79.3706 38.356 79.8506 38.356C80.2906 38.356 80.6986 38.42 81.0746 38.548C81.4586 38.676 81.7746 38.864 82.0226 39.112L81.6626 39.844C81.4146 39.628 81.1346 39.464 80.8226 39.352C80.5186 39.232 80.2066 39.172 79.8866 39.172C79.4226 39.172 79.0786 39.264 78.8546 39.448C78.6306 39.624 78.5186 39.856 78.5186 40.144C78.5186 40.36 78.5866 40.54 78.7226 40.684C78.8586 40.82 79.0786 40.924 79.3826 40.996L80.5226 41.224C81.0586 41.336 81.4626 41.52 81.7346 41.776C82.0066 42.032 82.1426 42.372 82.1426 42.796C82.1426 43.172 82.0386 43.496 81.8306 43.768C81.6306 44.04 81.3466 44.248 80.9786 44.392C80.6186 44.536 80.1946 44.608 79.7066 44.608Z" fill="#6B7280"/>
</svg>
