<svg width="100" height="100" viewBox="0 0 100 100" fill="none" xmlns="http://www.w3.org/2000/svg">
<path d="M50 100C77.6142 100 100 77.6142 100 50C100 22.3858 77.6142 0 50 0C22.3858 0 0 22.3858 0 50C0 77.6142 22.3858 100 50 100Z" fill="white"/>
<mask id="path-2-inside-1_57_11938" fill="white">
<path d="M48.8056 27.8347C46.0126 27.8347 43.712 30.1353 43.712 32.9283V35.5278L43.4997 34.8384C42.6898 32.166 39.8051 30.6328 37.1326 31.4427C34.4602 32.2526 32.927 35.1373 33.7369 37.8097L38.1412 52.1365C37.822 52.2621 37.479 52.4081 37.1326 52.6119C35.7132 53.4608 34.1087 55.1791 33.6299 57.9195C33.2734 59.9485 33.6639 61.7329 33.9491 62.6939V62.7483L35.2752 66.993C36.0243 69.4202 37.5312 71.5437 39.575 73.0522C41.6188 74.5607 44.0921 75.3749 46.6323 75.3754H55.5971C62.1425 75.3754 67.4823 70.0356 67.4823 63.4902V46.2992C67.4688 46.2465 67.4484 46.1922 67.4297 46.1396C67.2769 44.2702 66.1427 42.5248 64.2988 41.7896C63.0186 41.2785 61.6722 41.3515 60.4786 41.8422C59.9228 40.7632 59.0014 39.917 57.8791 39.455C57.2429 39.2035 56.5623 39.0831 55.8784 39.1012C55.1945 39.1193 54.5213 39.2754 53.8993 39.5602V32.9283C53.8993 30.1353 51.5986 27.8347 48.8056 27.8347ZM48.8056 31.2304C49.7666 31.2304 50.5035 31.9673 50.5035 32.9283V44.1242L48.753 48.5811C48.5067 49.2062 48.3805 49.8721 48.3811 50.5439L41.43 51.4454L37.0257 36.8012C36.9559 36.5887 36.9295 36.3644 36.9481 36.1415C36.9667 35.9186 37.0299 35.7017 37.1339 35.5038C37.238 35.3058 37.3808 35.1307 37.5538 34.989C37.7268 34.8473 37.9266 34.7418 38.1412 34.6788C39.0563 34.4004 39.9851 34.9318 40.2635 35.847L43.7646 47.4656L45.6747 46.8832H47.1077V32.9283C47.1077 31.9673 47.8446 31.2304 48.8056 31.2304ZM55.9163 42.4789C56.1337 42.4721 56.3867 42.4993 56.6057 42.5859C56.8159 42.6678 57.0077 42.7907 57.1699 42.9476C57.3321 43.1045 57.4614 43.2921 57.5502 43.4995C57.6391 43.7069 57.6857 43.9299 57.6873 44.1555C57.689 44.3811 57.6457 44.6048 57.5599 44.8135L55.7567 49.3231V49.3757L55.0657 51.1279C55.0334 51.2196 54.9536 51.2604 54.9078 51.3402C54.0291 50.6458 52.9491 50.255 51.8295 50.2264C51.8499 50.099 51.8295 49.9802 51.8839 49.8528L54.4307 43.5401C54.6956 42.8694 55.2593 42.4925 55.9163 42.4789ZM62.3344 44.8135C62.5619 44.8135 62.7996 44.8339 63.0254 44.9205C63.3366 45.0402 63.6045 45.2511 63.7938 45.5256C63.9832 45.8 64.0852 46.1253 64.0866 46.4588V46.5114C64.0866 46.7168 64.0594 46.9427 63.9796 47.1481L62.0695 51.8699C61.9878 52.0803 61.8649 52.2723 61.7081 52.4347C61.5513 52.597 61.3637 52.7265 61.1563 52.8155C60.9489 52.9045 60.7258 52.9513 60.5001 52.953C60.2744 52.9548 60.0506 52.9116 59.8419 52.8258C58.9539 52.4676 58.582 51.4845 58.9403 50.5965L60.7434 46.0869C60.7706 46.019 60.7706 45.9409 60.7978 45.8747C60.9606 45.4503 61.2839 45.107 61.6976 44.9188C61.9014 44.8395 62.1194 44.8037 62.3377 44.8135H62.3344ZM51.3524 53.5678C51.5616 53.5161 51.779 53.5068 51.9918 53.5405C52.2046 53.5742 52.4085 53.6502 52.5914 53.764C52.7744 53.8778 52.9327 54.0271 53.057 54.203C53.1813 54.379 53.2691 54.5781 53.3152 54.7886C53.4476 55.3387 53.3746 55.6171 53.2099 55.9024C53.0435 56.1876 52.6921 56.5391 51.9365 56.8057L43.712 58.928C43.4647 58.9939 43.2356 59.1147 43.0416 59.2816C42.8476 59.4484 42.6939 59.6569 42.5918 59.8915C42.4898 60.1262 42.4421 60.3808 42.4523 60.6365C42.4625 60.8921 42.5304 61.1421 42.6508 61.3679L44.1891 64.1796C44.2966 64.3752 44.4418 64.5477 44.6163 64.687C44.7908 64.8263 44.9912 64.9297 45.2058 64.9912C45.4204 65.0528 45.6451 65.0713 45.8669 65.0456C46.0887 65.02 46.3033 64.9507 46.4982 64.8418C46.6934 64.7342 46.8654 64.5891 47.0044 64.4149C47.1434 64.2406 47.2467 64.0407 47.3082 63.8264C47.3697 63.6122 47.3883 63.3879 47.363 63.1665C47.3376 62.945 47.2687 62.7308 47.1604 62.536L46.6832 61.6871L52.945 60.0401C52.996 60.0283 53.0503 60.0079 53.103 59.9892C54.4171 59.5308 55.4715 58.748 56.1286 57.6546C56.6562 56.7589 56.8796 55.7165 56.7653 54.6833C57.2611 55.2198 57.8978 55.6647 58.6211 55.9567C59.5409 56.3289 60.5502 56.4214 61.5224 56.2227C62.4946 56.024 63.3865 55.5428 64.0866 54.8395V63.4902C64.0866 68.1985 60.3054 71.9797 55.5971 71.9797H46.6306C42.8953 71.9797 39.6133 69.5517 38.513 65.9844L37.2396 61.7397C37.0987 61.2813 36.8202 59.6768 37.0257 58.5019C37.3449 56.6783 38.1412 55.9754 38.8832 55.5306C39.6268 55.0874 40.1566 55.0551 40.1566 55.0551H40.2635L51.1928 53.6204C51.2472 53.6085 51.2998 53.5882 51.3524 53.5695V53.5678Z"/>
</mask>
<path d="M48.8056 27.8347C46.0126 27.8347 43.712 30.1353 43.712 32.9283V35.5278L43.4997 34.8384C42.6898 32.166 39.8051 30.6328 37.1326 31.4427C34.4602 32.2526 32.927 35.1373 33.7369 37.8097L38.1412 52.1365C37.822 52.2621 37.479 52.4081 37.1326 52.6119C35.7132 53.4608 34.1087 55.1791 33.6299 57.9195C33.2734 59.9485 33.6639 61.7329 33.9491 62.6939V62.7483L35.2752 66.993C36.0243 69.4202 37.5312 71.5437 39.575 73.0522C41.6188 74.5607 44.0921 75.3749 46.6323 75.3754H55.5971C62.1425 75.3754 67.4823 70.0356 67.4823 63.4902V46.2992C67.4688 46.2465 67.4484 46.1922 67.4297 46.1396C67.2769 44.2702 66.1427 42.5248 64.2988 41.7896C63.0186 41.2785 61.6722 41.3515 60.4786 41.8422C59.9228 40.7632 59.0014 39.917 57.8791 39.455C57.2429 39.2035 56.5623 39.0831 55.8784 39.1012C55.1945 39.1193 54.5213 39.2754 53.8993 39.5602V32.9283C53.8993 30.1353 51.5986 27.8347 48.8056 27.8347ZM48.8056 31.2304C49.7666 31.2304 50.5035 31.9673 50.5035 32.9283V44.1242L48.753 48.5811C48.5067 49.2062 48.3805 49.8721 48.3811 50.5439L41.43 51.4454L37.0257 36.8012C36.9559 36.5887 36.9295 36.3644 36.9481 36.1415C36.9667 35.9186 37.0299 35.7017 37.1339 35.5038C37.238 35.3058 37.3808 35.1307 37.5538 34.989C37.7268 34.8473 37.9266 34.7418 38.1412 34.6788C39.0563 34.4004 39.9851 34.9318 40.2635 35.847L43.7646 47.4656L45.6747 46.8832H47.1077V32.9283C47.1077 31.9673 47.8446 31.2304 48.8056 31.2304ZM55.9163 42.4789C56.1337 42.4721 56.3867 42.4993 56.6057 42.5859C56.8159 42.6678 57.0077 42.7907 57.1699 42.9476C57.3321 43.1045 57.4614 43.2921 57.5502 43.4995C57.6391 43.7069 57.6857 43.9299 57.6873 44.1555C57.689 44.3811 57.6457 44.6048 57.5599 44.8135L55.7567 49.3231V49.3757L55.0657 51.1279C55.0334 51.2196 54.9536 51.2604 54.9078 51.3402C54.0291 50.6458 52.9491 50.255 51.8295 50.2264C51.8499 50.099 51.8295 49.9802 51.8839 49.8528L54.4307 43.5401C54.6956 42.8694 55.2593 42.4925 55.9163 42.4789ZM62.3344 44.8135C62.5619 44.8135 62.7996 44.8339 63.0254 44.9205C63.3366 45.0402 63.6045 45.2511 63.7938 45.5256C63.9832 45.8 64.0852 46.1253 64.0866 46.4588V46.5114C64.0866 46.7168 64.0594 46.9427 63.9796 47.1481L62.0695 51.8699C61.9878 52.0803 61.8649 52.2723 61.7081 52.4347C61.5513 52.597 61.3637 52.7265 61.1563 52.8155C60.9489 52.9045 60.7258 52.9513 60.5001 52.953C60.2744 52.9548 60.0506 52.9116 59.8419 52.8258C58.9539 52.4676 58.582 51.4845 58.9403 50.5965L60.7434 46.0869C60.7706 46.019 60.7706 45.9409 60.7978 45.8747C60.9606 45.4503 61.2839 45.107 61.6976 44.9188C61.9014 44.8395 62.1194 44.8037 62.3377 44.8135H62.3344ZM51.3524 53.5678C51.5616 53.5161 51.779 53.5068 51.9918 53.5405C52.2046 53.5742 52.4085 53.6502 52.5914 53.764C52.7744 53.8778 52.9327 54.0271 53.057 54.203C53.1813 54.379 53.2691 54.5781 53.3152 54.7886C53.4476 55.3387 53.3746 55.6171 53.2099 55.9024C53.0435 56.1876 52.6921 56.5391 51.9365 56.8057L43.712 58.928C43.4647 58.9939 43.2356 59.1147 43.0416 59.2816C42.8476 59.4484 42.6939 59.6569 42.5918 59.8915C42.4898 60.1262 42.4421 60.3808 42.4523 60.6365C42.4625 60.8921 42.5304 61.1421 42.6508 61.3679L44.1891 64.1796C44.2966 64.3752 44.4418 64.5477 44.6163 64.687C44.7908 64.8263 44.9912 64.9297 45.2058 64.9912C45.4204 65.0528 45.6451 65.0713 45.8669 65.0456C46.0887 65.02 46.3033 64.9507 46.4982 64.8418C46.6934 64.7342 46.8654 64.5891 47.0044 64.4149C47.1434 64.2406 47.2467 64.0407 47.3082 63.8264C47.3697 63.6122 47.3883 63.3879 47.363 63.1665C47.3376 62.945 47.2687 62.7308 47.1604 62.536L46.6832 61.6871L52.945 60.0401C52.996 60.0283 53.0503 60.0079 53.103 59.9892C54.4171 59.5308 55.4715 58.748 56.1286 57.6546C56.6562 56.7589 56.8796 55.7165 56.7653 54.6833C57.2611 55.2198 57.8978 55.6647 58.6211 55.9567C59.5409 56.3289 60.5502 56.4214 61.5224 56.2227C62.4946 56.024 63.3865 55.5428 64.0866 54.8395V63.4902C64.0866 68.1985 60.3054 71.9797 55.5971 71.9797H46.6306C42.8953 71.9797 39.6133 69.5517 38.513 65.9844L37.2396 61.7397C37.0987 61.2813 36.8202 59.6768 37.0257 58.5019C37.3449 56.6783 38.1412 55.9754 38.8832 55.5306C39.6268 55.0874 40.1566 55.0551 40.1566 55.0551H40.2635L51.1928 53.6204C51.2472 53.6085 51.2998 53.5882 51.3524 53.5695V53.5678Z" fill="#0BAB9E" stroke="#0BAB9E" mask="url(#path-2-inside-1_57_11938)"/>
</svg>
