<svg width="130" height="50" viewBox="0 0 130 50" fill="none" xmlns="http://www.w3.org/2000/svg">
<path d="M65 11.328L71 16.728V26.1H68.6V18.9H61.4V26.1H59V16.728L65 11.328ZM65 8.09998L53 18.9H56.6V28.5H63.8V21.3H66.2V28.5H73.4V18.9H77L65 8.09998Z" fill="#0BAB9E"/>
<path d="M49.7631 44.5V36.04H50.8791V39.736H55.7991V36.04H56.9271V44.5H55.7991V40.684H50.8791V44.5H49.7631ZM61.158 44.608C60.566 44.608 60.054 44.484 59.622 44.236C59.19 43.98 58.854 43.62 58.614 43.156C58.374 42.684 58.254 42.124 58.254 41.476C58.254 40.836 58.374 40.284 58.614 39.82C58.854 39.348 59.19 38.988 59.622 38.74C60.054 38.484 60.566 38.356 61.158 38.356C61.75 38.356 62.262 38.484 62.694 38.74C63.134 38.988 63.47 39.348 63.702 39.82C63.942 40.284 64.062 40.836 64.062 41.476C64.062 42.124 63.942 42.684 63.702 43.156C63.47 43.62 63.134 43.98 62.694 44.236C62.262 44.484 61.75 44.608 61.158 44.608ZM61.158 43.744C61.702 43.744 62.138 43.552 62.466 43.168C62.794 42.784 62.958 42.22 62.958 41.476C62.958 40.732 62.794 40.172 62.466 39.796C62.138 39.42 61.702 39.232 61.158 39.232C60.606 39.232 60.166 39.42 59.838 39.796C59.518 40.172 59.358 40.732 59.358 41.476C59.358 42.22 59.518 42.784 59.838 43.168C60.166 43.552 60.606 43.744 61.158 43.744ZM65.2881 44.5V39.892C65.2881 39.66 65.2801 39.424 65.2641 39.184C65.2481 38.944 65.2241 38.704 65.1921 38.464H66.2481L66.3681 39.76H66.2241C66.3841 39.312 66.6401 38.968 66.9921 38.728C67.3441 38.48 67.7641 38.356 68.2521 38.356C68.7481 38.356 69.1561 38.476 69.4761 38.716C69.7961 38.948 70.0121 39.316 70.1241 39.82H69.9441C70.0961 39.372 70.3641 39.016 70.7481 38.752C71.1321 38.488 71.5801 38.356 72.0921 38.356C72.7561 38.356 73.2561 38.552 73.5921 38.944C73.9281 39.328 74.0961 39.928 74.0961 40.744V44.5H73.0041V40.804C73.0041 40.252 72.9081 39.856 72.7161 39.616C72.5241 39.368 72.2201 39.244 71.8041 39.244C71.3161 39.244 70.9321 39.412 70.6521 39.748C70.3721 40.076 70.2321 40.524 70.2321 41.092V44.5H69.1401V40.804C69.1401 40.252 69.0441 39.856 68.8521 39.616C68.6681 39.368 68.3641 39.244 67.9401 39.244C67.4521 39.244 67.0681 39.412 66.7881 39.748C66.5161 40.076 66.3801 40.524 66.3801 41.092V44.5H65.2881ZM78.3898 44.608C77.4298 44.608 76.6698 44.332 76.1098 43.78C75.5578 43.228 75.2818 42.468 75.2818 41.5C75.2818 40.86 75.4018 40.308 75.6418 39.844C75.8898 39.372 76.2298 39.008 76.6618 38.752C77.0938 38.488 77.5978 38.356 78.1738 38.356C78.7258 38.356 79.1938 38.476 79.5778 38.716C79.9618 38.948 80.2538 39.28 80.4538 39.712C80.6538 40.144 80.7538 40.656 80.7538 41.248V41.608H76.1338V40.96H80.0098L79.8058 41.116C79.8058 40.492 79.6658 40.008 79.3858 39.664C79.1138 39.32 78.7098 39.148 78.1738 39.148C77.5898 39.148 77.1378 39.352 76.8178 39.76C76.4978 40.16 76.3378 40.708 76.3378 41.404V41.512C76.3378 42.248 76.5178 42.804 76.8778 43.18C77.2458 43.556 77.7538 43.744 78.4018 43.744C78.7618 43.744 79.0978 43.692 79.4098 43.588C79.7218 43.484 80.0218 43.312 80.3098 43.072L80.6698 43.828C80.3978 44.076 80.0578 44.268 79.6498 44.404C79.2498 44.54 78.8298 44.608 78.3898 44.608Z" fill="#6B7280"/>
</svg>
