<svg width="130" height="50" viewBox="0 0 130 50" fill="none" xmlns="http://www.w3.org/2000/svg">
<g clip-path="url(#clip0_63_1589)">
<path d="M66.4277 14.8498V12.5586C66.996 12.7462 67.5534 13.0347 68.1084 13.4358L68.5438 13.7504L68.8264 13.2936L69.8457 11.6466L70.089 11.2534L69.716 10.9801C68.7625 10.2818 67.6614 9.81607 66.5005 9.61729V9V8.5H66.0005H64.418H63.918V9V9.5689C62.8924 9.71831 61.9977 10.095 61.3275 10.6773C60.5503 11.3524 60.0982 12.286 60.0982 13.3807C60.0982 14.4924 60.4536 15.3719 61.2158 16.0516C61.8793 16.6431 62.8179 17.0526 63.9908 17.376V19.8118C63.1616 19.5883 62.4105 19.1565 61.5959 18.5232L61.189 18.207L60.8852 18.6232L59.7212 20.2177L59.4338 20.6114L59.82 20.9087C61.0196 21.8322 62.4283 22.4411 63.918 22.6837V24V24.5H64.418H66.0005H66.5005V24V22.7107C67.5413 22.5565 68.4497 22.1803 69.1301 21.5949C69.9181 20.917 70.375 19.9779 70.375 18.8655C70.375 17.7991 70.0345 16.9177 69.276 16.2234C68.61 15.6137 67.6551 15.1793 66.4277 14.8498ZM65 28C58.6484 28 53.5 22.8516 53.5 16.5C53.5 10.1484 58.6484 5 65 5C71.3516 5 76.5 10.1484 76.5 16.5C76.5 22.8516 71.3516 28 65 28ZM63.9906 12.3849L63.9902 14.1687C63.7182 14.0522 63.5502 13.9398 63.4455 13.8352C63.3045 13.6945 63.2448 13.5356 63.2448 13.2577C63.2448 13.012 63.3362 12.8033 63.5202 12.6398C63.6305 12.5417 63.7848 12.4512 63.9906 12.3849ZM67.2285 18.9877C67.2285 19.2659 67.1262 19.48 66.9342 19.6431C66.8142 19.745 66.6474 19.8362 66.4277 19.9019V18.0206C66.7165 18.1404 66.8968 18.2571 67.0105 18.3684C67.1614 18.516 67.2285 18.6866 67.2285 18.9877Z" fill="#0BAB9E" stroke="#0BAB9E"/>
</g>
<path d="M29.099 44.5V36.04H32.603C33.507 36.04 34.199 36.256 34.679 36.688C35.159 37.12 35.399 37.716 35.399 38.476C35.399 39.236 35.159 39.836 34.679 40.276C34.199 40.708 33.507 40.924 32.603 40.924H30.215V44.5H29.099ZM30.215 40.012H32.495C33.087 40.012 33.535 39.88 33.839 39.616C34.143 39.344 34.295 38.964 34.295 38.476C34.295 37.988 34.143 37.612 33.839 37.348C33.535 37.084 33.087 36.952 32.495 36.952H30.215V40.012ZM38.6133 44.608C38.0853 44.608 37.6213 44.484 37.2213 44.236C36.8213 43.988 36.5093 43.628 36.2853 43.156C36.0613 42.684 35.9493 42.124 35.9493 41.476C35.9493 40.828 36.0613 40.272 36.2853 39.808C36.5093 39.336 36.8213 38.976 37.2213 38.728C37.6213 38.48 38.0853 38.356 38.6133 38.356C39.1493 38.356 39.6133 38.492 40.0053 38.764C40.4053 39.028 40.6693 39.392 40.7973 39.856H40.6533L40.7853 38.464H41.8413C41.8173 38.704 41.7933 38.944 41.7693 39.184C41.7533 39.424 41.7453 39.66 41.7453 39.892V44.5H40.6533V43.12H40.7853C40.6573 43.576 40.3933 43.94 39.9933 44.212C39.6013 44.476 39.1413 44.608 38.6133 44.608ZM38.8653 43.744C39.4093 43.744 39.8453 43.552 40.1733 43.168C40.5013 42.784 40.6653 42.22 40.6653 41.476C40.6653 40.732 40.5013 40.172 40.1733 39.796C39.8453 39.42 39.4093 39.232 38.8653 39.232C38.3213 39.232 37.8813 39.42 37.5453 39.796C37.2173 40.172 37.0533 40.732 37.0533 41.476C37.0533 42.22 37.2173 42.784 37.5453 43.168C37.8733 43.552 38.3133 43.744 38.8653 43.744ZM43.0723 47.224L42.8203 46.336C43.1963 46.248 43.5083 46.144 43.7563 46.024C44.0043 45.912 44.2123 45.764 44.3803 45.58C44.5483 45.396 44.6963 45.164 44.8243 44.884L45.1243 44.164L45.1003 44.62L42.4723 38.464H43.6483L45.7483 43.636H45.4363L47.5363 38.464H48.6643L45.8923 44.968C45.7243 45.36 45.5403 45.688 45.3403 45.952C45.1483 46.216 44.9363 46.432 44.7043 46.6C44.4803 46.768 44.2323 46.9 43.9603 46.996C43.6883 47.092 43.3923 47.168 43.0723 47.224ZM52.1065 45.172H51.1825L54.3145 35.512H55.2505L52.1065 45.172ZM58.6902 44.5V36.04H62.1942C63.0982 36.04 63.7942 36.252 64.2822 36.676C64.7782 37.1 65.0262 37.692 65.0262 38.452C65.0262 38.956 64.9142 39.384 64.6902 39.736C64.4662 40.088 64.1502 40.356 63.7422 40.54C63.3422 40.724 62.8742 40.816 62.3382 40.816L62.5422 40.648H62.8302C63.1582 40.648 63.4502 40.732 63.7062 40.9C63.9622 41.06 64.1742 41.324 64.3422 41.692L65.5422 44.5H64.3062L63.1422 41.716C63.0062 41.372 62.8062 41.148 62.5422 41.044C62.2862 40.94 61.9622 40.888 61.5702 40.888H59.8062V44.5H58.6902ZM59.8062 40.024H62.0262C62.6422 40.024 63.1102 39.892 63.4302 39.628C63.7582 39.364 63.9222 38.98 63.9222 38.476C63.9222 37.98 63.7582 37.604 63.4302 37.348C63.1102 37.084 62.6422 36.952 62.0262 36.952H59.8062V40.024ZM69.2813 44.608C68.3213 44.608 67.5613 44.332 67.0013 43.78C66.4493 43.228 66.1733 42.468 66.1733 41.5C66.1733 40.86 66.2933 40.308 66.5333 39.844C66.7813 39.372 67.1213 39.008 67.5533 38.752C67.9853 38.488 68.4893 38.356 69.0653 38.356C69.6173 38.356 70.0853 38.476 70.4693 38.716C70.8533 38.948 71.1453 39.28 71.3453 39.712C71.5453 40.144 71.6453 40.656 71.6453 41.248V41.608H67.0253V40.96H70.9013L70.6973 41.116C70.6973 40.492 70.5573 40.008 70.2773 39.664C70.0053 39.32 69.6013 39.148 69.0653 39.148C68.4813 39.148 68.0293 39.352 67.7093 39.76C67.3893 40.16 67.2293 40.708 67.2293 41.404V41.512C67.2293 42.248 67.4093 42.804 67.7693 43.18C68.1373 43.556 68.6453 43.744 69.2933 43.744C69.6533 43.744 69.9893 43.692 70.3013 43.588C70.6133 43.484 70.9133 43.312 71.2013 43.072L71.5613 43.828C71.2893 44.076 70.9493 44.268 70.5413 44.404C70.1413 44.54 69.7213 44.608 69.2813 44.608ZM77.1764 47.092V43.12H77.3084C77.1804 43.576 76.9164 43.94 76.5164 44.212C76.1244 44.476 75.6644 44.608 75.1364 44.608C74.6084 44.608 74.1444 44.484 73.7444 44.236C73.3444 43.988 73.0324 43.628 72.8084 43.156C72.5844 42.684 72.4724 42.124 72.4724 41.476C72.4724 40.828 72.5844 40.272 72.8084 39.808C73.0324 39.336 73.3444 38.976 73.7444 38.728C74.1444 38.48 74.6084 38.356 75.1364 38.356C75.6724 38.356 76.1364 38.492 76.5284 38.764C76.9284 39.028 77.1924 39.392 77.3204 39.856H77.1764L77.3084 38.464H78.3644C78.3404 38.704 78.3164 38.944 78.2924 39.184C78.2764 39.424 78.2684 39.66 78.2684 39.892V47.092H77.1764ZM75.3884 43.744C75.9324 43.744 76.3684 43.552 76.6964 43.168C77.0244 42.784 77.1884 42.22 77.1884 41.476C77.1884 40.732 77.0244 40.172 76.6964 39.796C76.3684 39.42 75.9324 39.232 75.3884 39.232C74.8444 39.232 74.4044 39.42 74.0684 39.796C73.7404 40.172 73.5764 40.732 73.5764 41.476C73.5764 42.22 73.7404 42.784 74.0684 43.168C74.3964 43.552 74.8364 43.744 75.3884 43.744ZM82.006 44.608C81.278 44.608 80.73 44.412 80.362 44.02C80.002 43.628 79.822 43.024 79.822 42.208V38.464H80.914V42.184C80.914 42.712 81.022 43.1 81.238 43.348C81.454 43.596 81.79 43.72 82.246 43.72C82.742 43.72 83.142 43.556 83.446 43.228C83.758 42.892 83.914 42.448 83.914 41.896V38.464H85.006V44.5H83.95V43.168H84.106C83.938 43.624 83.67 43.98 83.302 44.236C82.934 44.484 82.502 44.608 82.006 44.608ZM89.3504 44.608C88.3904 44.608 87.6304 44.332 87.0704 43.78C86.5184 43.228 86.2424 42.468 86.2424 41.5C86.2424 40.86 86.3624 40.308 86.6024 39.844C86.8504 39.372 87.1904 39.008 87.6224 38.752C88.0544 38.488 88.5584 38.356 89.1344 38.356C89.6864 38.356 90.1544 38.476 90.5384 38.716C90.9224 38.948 91.2144 39.28 91.4144 39.712C91.6144 40.144 91.7144 40.656 91.7144 41.248V41.608H87.0944V40.96H90.9704L90.7664 41.116C90.7664 40.492 90.6264 40.008 90.3464 39.664C90.0744 39.32 89.6704 39.148 89.1344 39.148C88.5504 39.148 88.0984 39.352 87.7784 39.76C87.4584 40.16 87.2984 40.708 87.2984 41.404V41.512C87.2984 42.248 87.4784 42.804 87.8384 43.18C88.2064 43.556 88.7144 43.744 89.3624 43.744C89.7224 43.744 90.0584 43.692 90.3704 43.588C90.6824 43.484 90.9824 43.312 91.2704 43.072L91.6304 43.828C91.3584 44.076 91.0184 44.268 90.6104 44.404C90.2104 44.54 89.7904 44.608 89.3504 44.608ZM94.9415 44.608C94.4535 44.608 93.9975 44.544 93.5735 44.416C93.1575 44.288 92.8135 44.104 92.5415 43.864L92.8895 43.108C93.1855 43.332 93.5095 43.504 93.8615 43.624C94.2215 43.736 94.5895 43.792 94.9655 43.792C95.4215 43.792 95.7655 43.708 95.9975 43.54C96.2375 43.372 96.3575 43.148 96.3575 42.868C96.3575 42.644 96.2815 42.464 96.1295 42.328C95.9775 42.192 95.7375 42.092 95.4095 42.028L94.2695 41.8C93.7575 41.68 93.3695 41.488 93.1055 41.224C92.8495 40.952 92.7215 40.604 92.7215 40.18C92.7215 39.828 92.8175 39.516 93.0095 39.244C93.2015 38.964 93.4735 38.748 93.8255 38.596C94.1855 38.436 94.6055 38.356 95.0855 38.356C95.5255 38.356 95.9335 38.42 96.3095 38.548C96.6935 38.676 97.0095 38.864 97.2575 39.112L96.8975 39.844C96.6495 39.628 96.3695 39.464 96.0575 39.352C95.7535 39.232 95.4415 39.172 95.1215 39.172C94.6575 39.172 94.3135 39.264 94.0895 39.448C93.8655 39.624 93.7535 39.856 93.7535 40.144C93.7535 40.36 93.8215 40.54 93.9575 40.684C94.0935 40.82 94.3135 40.924 94.6175 40.996L95.7575 41.224C96.2935 41.336 96.6975 41.52 96.9695 41.776C97.2415 42.032 97.3775 42.372 97.3775 42.796C97.3775 43.172 97.2735 43.496 97.0655 43.768C96.8655 44.04 96.5815 44.248 96.2135 44.392C95.8535 44.536 95.4295 44.608 94.9415 44.608ZM100.824 44.608C100.192 44.608 99.7117 44.436 99.3837 44.092C99.0637 43.74 98.9037 43.212 98.9037 42.508V39.304H97.7277V38.464H98.9037V36.844L99.9957 36.544V38.464H101.7V39.304H99.9957V42.412C99.9957 42.876 100.076 43.208 100.236 43.408C100.404 43.6 100.644 43.696 100.956 43.696C101.116 43.696 101.252 43.684 101.364 43.66C101.484 43.628 101.592 43.592 101.688 43.552V44.452C101.568 44.5 101.428 44.536 101.268 44.56C101.116 44.592 100.968 44.608 100.824 44.608Z" fill="#6B7280"/>
<defs>
<clipPath id="clip0_63_1589">
<rect width="24" height="24" fill="white" transform="translate(53 4.5)"/>
</clipPath>
</defs>
</svg>
