<svg width="500" height="500" viewBox="0 0 500 500" fill="none" xmlns="http://www.w3.org/2000/svg">
<rect width="500" height="500" fill="#0BAB9E"/>
<path d="M129.261 269V263.096L152.013 237.248V239.408H129.261V232.64H160.149V238.544L137.181 264.608L137.109 262.232H160.941V269H129.261ZM185.464 269.72C179.368 269.72 174.592 268.04 171.136 264.68C167.68 261.32 165.952 256.712 165.952 250.856C165.952 247.064 166.696 243.752 168.184 240.92C169.672 238.088 171.736 235.88 174.376 234.296C177.064 232.712 180.184 231.92 183.736 231.92C187.24 231.92 190.168 232.664 192.52 234.152C194.872 235.64 196.648 237.728 197.848 240.416C199.096 243.104 199.72 246.248 199.72 249.848V252.224H173.224V247.472H193.312L192.088 248.48C192.088 245.12 191.368 242.552 189.928 240.776C188.536 239 186.496 238.112 183.808 238.112C180.832 238.112 178.528 239.168 176.896 241.28C175.312 243.392 174.52 246.344 174.52 250.136V251.072C174.52 255.008 175.48 257.96 177.4 259.928C179.368 261.848 182.128 262.808 185.68 262.808C187.744 262.808 189.664 262.544 191.44 262.016C193.264 261.44 194.992 260.528 196.624 259.28L199.288 265.328C197.56 266.72 195.496 267.8 193.096 268.568C190.696 269.336 188.152 269.72 185.464 269.72ZM207.341 269V241.712C207.341 240.224 207.293 238.712 207.197 237.176C207.101 235.64 206.957 234.128 206.765 232.64H215.477L216.197 239.84H215.333C216.485 237.296 218.189 235.352 220.445 234.008C222.701 232.616 225.317 231.92 228.293 231.92C232.565 231.92 235.781 233.12 237.941 235.52C240.101 237.92 241.181 241.664 241.181 246.752V269H232.181V247.184C232.181 244.256 231.605 242.168 230.453 240.92C229.349 239.624 227.669 238.976 225.413 238.976C222.629 238.976 220.421 239.84 218.789 241.568C217.157 243.296 216.341 245.6 216.341 248.48V269H207.341ZM250.724 269V241.712C250.724 240.224 250.676 238.712 250.58 237.176C250.484 235.64 250.34 234.128 250.148 232.64H258.86L259.58 239.84H258.716C259.724 237.344 261.26 235.4 263.324 234.008C265.436 232.616 267.932 231.92 270.812 231.92C273.692 231.92 276.068 232.616 277.94 234.008C279.86 235.352 281.204 237.464 281.972 240.344H280.82C281.828 237.752 283.484 235.712 285.788 234.224C288.092 232.688 290.732 231.92 293.708 231.92C297.788 231.92 300.836 233.12 302.852 235.52C304.868 237.92 305.876 241.664 305.876 246.752V269H296.876V247.112C296.876 244.232 296.396 242.168 295.436 240.92C294.476 239.624 292.94 238.976 290.828 238.976C288.332 238.976 286.364 239.864 284.924 241.64C283.484 243.368 282.764 245.72 282.764 248.696V269H273.764V247.112C273.764 244.232 273.284 242.168 272.324 240.92C271.364 239.624 269.828 238.976 267.716 238.976C265.22 238.976 263.252 239.864 261.812 241.64C260.42 243.368 259.724 245.72 259.724 248.696V269H250.724ZM331.898 269.72C328.154 269.72 324.914 268.952 322.178 267.416C319.442 265.88 317.306 263.696 315.77 260.864C314.282 258.032 313.538 254.672 313.538 250.784C313.538 246.896 314.282 243.56 315.77 240.776C317.306 237.944 319.442 235.76 322.178 234.224C324.914 232.688 328.154 231.92 331.898 231.92C335.642 231.92 338.882 232.688 341.618 234.224C344.402 235.76 346.538 237.944 348.026 240.776C349.562 243.56 350.33 246.896 350.33 250.784C350.33 254.672 349.562 258.032 348.026 260.864C346.538 263.696 344.402 265.88 341.618 267.416C338.882 268.952 335.642 269.72 331.898 269.72ZM331.898 262.808C334.73 262.808 336.986 261.824 338.666 259.856C340.346 257.84 341.186 254.816 341.186 250.784C341.186 246.752 340.346 243.752 338.666 241.784C336.986 239.816 334.73 238.832 331.898 238.832C329.066 238.832 326.81 239.816 325.13 241.784C323.45 243.752 322.61 246.752 322.61 250.784C322.61 254.816 323.45 257.84 325.13 259.856C326.81 261.824 329.066 262.808 331.898 262.808Z" fill="white"/>
<mask id="path-3-inside-1_75_13245" fill="white">
<path d="M379.605 205C375.484 205 372.089 208.388 372.089 212.5V216.328L371.775 215.313C370.58 211.378 366.323 209.12 362.379 210.313C358.436 211.505 356.173 215.753 357.368 219.688L363.868 240.782C363.397 240.967 362.891 241.183 362.379 241.483C360.285 242.733 357.917 245.263 357.21 249.298C356.684 252.285 357.26 254.913 357.681 256.328V256.408L359.638 262.658C360.744 266.231 362.968 269.358 365.984 271.579C369 273.8 372.649 274.999 376.398 275H389.628C399.287 275 407.167 267.138 407.167 257.5V232.188C407.147 232.11 407.117 232.03 407.089 231.952C406.863 229.2 405.19 226.63 402.469 225.547C400.579 224.795 398.593 224.903 396.831 225.625C396.011 224.036 394.651 222.79 392.995 222.11C392.056 221.74 391.052 221.562 390.043 221.589C389.033 221.616 388.04 221.846 387.122 222.265V212.5C387.122 208.388 383.727 205 379.605 205ZM379.605 210C381.023 210 382.111 211.085 382.111 212.5V228.985L379.528 235.548C379.164 236.468 378.978 237.448 378.979 238.438L368.721 239.765L362.222 218.203C362.119 217.89 362.08 217.559 362.107 217.231C362.134 216.903 362.228 216.584 362.381 216.292C362.535 216.001 362.746 215.743 363.001 215.534C363.256 215.326 363.551 215.17 363.868 215.078C365.218 214.668 366.589 215.45 367 216.798L372.166 233.905L374.985 233.048H377.1V212.5C377.1 211.085 378.187 210 379.605 210ZM390.099 226.563C390.419 226.553 390.793 226.593 391.116 226.72C391.426 226.841 391.709 227.022 391.949 227.253C392.188 227.484 392.379 227.76 392.51 228.065C392.641 228.371 392.71 228.699 392.712 229.031C392.715 229.363 392.651 229.693 392.524 230L389.863 236.64V236.718L388.843 239.298C388.796 239.433 388.678 239.493 388.61 239.61C387.314 238.588 385.72 238.012 384.068 237.97C384.098 237.782 384.068 237.608 384.148 237.42L387.906 228.125C388.297 227.138 389.129 226.583 390.099 226.563ZM399.57 230C399.905 230 400.256 230.03 400.59 230.158C401.049 230.334 401.444 230.644 401.723 231.048C402.003 231.453 402.153 231.932 402.156 232.423V232.5C402.156 232.803 402.115 233.135 401.998 233.438L399.179 240.39C399.058 240.7 398.877 240.982 398.646 241.222C398.414 241.461 398.137 241.651 397.831 241.782C397.525 241.913 397.196 241.982 396.863 241.985C396.53 241.987 396.2 241.924 395.892 241.798C394.581 241.27 394.032 239.822 394.561 238.515L397.222 231.875C397.262 231.775 397.262 231.66 397.302 231.563C397.543 230.938 398.02 230.432 398.63 230.155C398.931 230.038 399.253 229.986 399.575 230H399.57ZM383.364 242.89C383.672 242.814 383.993 242.8 384.307 242.85C384.621 242.899 384.922 243.011 385.192 243.179C385.462 243.346 385.696 243.566 385.879 243.825C386.063 244.084 386.192 244.378 386.26 244.688C386.456 245.498 386.348 245.908 386.105 246.328C385.859 246.747 385.341 247.265 384.226 247.657L372.089 250.782C371.724 250.879 371.385 251.057 371.099 251.303C370.813 251.549 370.586 251.856 370.436 252.201C370.285 252.547 370.215 252.922 370.23 253.298C370.245 253.674 370.345 254.043 370.523 254.375L372.793 258.515C372.951 258.803 373.166 259.057 373.423 259.262C373.681 259.467 373.976 259.619 374.293 259.71C374.61 259.801 374.941 259.828 375.269 259.79C375.596 259.752 375.913 259.65 376.2 259.49C376.488 259.332 376.742 259.118 376.947 258.861C377.152 258.605 377.305 258.31 377.396 257.995C377.486 257.68 377.514 257.349 377.476 257.023C377.439 256.697 377.337 256.382 377.177 256.095L376.473 254.845L385.714 252.42C385.789 252.403 385.869 252.372 385.947 252.345C387.886 251.67 389.442 250.517 390.412 248.907C391.19 247.589 391.52 246.054 391.351 244.532C392.083 245.322 393.023 245.977 394.09 246.407C395.447 246.956 396.937 247.092 398.372 246.799C399.806 246.507 401.122 245.798 402.156 244.763V257.5C402.156 264.433 396.576 270 389.628 270H376.396C370.883 270 366.04 266.425 364.416 261.172L362.537 254.923C362.329 254.248 361.918 251.885 362.222 250.155C362.693 247.47 363.868 246.435 364.963 245.78C366.06 245.128 366.842 245.08 366.842 245.08H367L383.128 242.968C383.208 242.95 383.286 242.92 383.364 242.892V242.89Z"/>
</mask>
<path d="M379.605 205C375.484 205 372.089 208.388 372.089 212.5V216.328L371.775 215.313C370.58 211.378 366.323 209.12 362.379 210.313C358.436 211.505 356.173 215.753 357.368 219.688L363.868 240.782C363.397 240.967 362.891 241.183 362.379 241.483C360.285 242.733 357.917 245.263 357.21 249.298C356.684 252.285 357.26 254.913 357.681 256.328V256.408L359.638 262.658C360.744 266.231 362.968 269.358 365.984 271.579C369 273.8 372.649 274.999 376.398 275H389.628C399.287 275 407.167 267.138 407.167 257.5V232.188C407.147 232.11 407.117 232.03 407.089 231.952C406.863 229.2 405.19 226.63 402.469 225.547C400.579 224.795 398.593 224.903 396.831 225.625C396.011 224.036 394.651 222.79 392.995 222.11C392.056 221.74 391.052 221.562 390.043 221.589C389.033 221.616 388.04 221.846 387.122 222.265V212.5C387.122 208.388 383.727 205 379.605 205ZM379.605 210C381.023 210 382.111 211.085 382.111 212.5V228.985L379.528 235.548C379.164 236.468 378.978 237.448 378.979 238.438L368.721 239.765L362.222 218.203C362.119 217.89 362.08 217.559 362.107 217.231C362.134 216.903 362.228 216.584 362.381 216.292C362.535 216.001 362.746 215.743 363.001 215.534C363.256 215.326 363.551 215.17 363.868 215.078C365.218 214.668 366.589 215.45 367 216.798L372.166 233.905L374.985 233.048H377.1V212.5C377.1 211.085 378.187 210 379.605 210ZM390.099 226.563C390.419 226.553 390.793 226.593 391.116 226.72C391.426 226.841 391.709 227.022 391.949 227.253C392.188 227.484 392.379 227.76 392.51 228.065C392.641 228.371 392.71 228.699 392.712 229.031C392.715 229.363 392.651 229.693 392.524 230L389.863 236.64V236.718L388.843 239.298C388.796 239.433 388.678 239.493 388.61 239.61C387.314 238.588 385.72 238.012 384.068 237.97C384.098 237.782 384.068 237.608 384.148 237.42L387.906 228.125C388.297 227.138 389.129 226.583 390.099 226.563ZM399.57 230C399.905 230 400.256 230.03 400.59 230.158C401.049 230.334 401.444 230.644 401.723 231.048C402.003 231.453 402.153 231.932 402.156 232.423V232.5C402.156 232.803 402.115 233.135 401.998 233.438L399.179 240.39C399.058 240.7 398.877 240.982 398.646 241.222C398.414 241.461 398.137 241.651 397.831 241.782C397.525 241.913 397.196 241.982 396.863 241.985C396.53 241.987 396.2 241.924 395.892 241.798C394.581 241.27 394.032 239.822 394.561 238.515L397.222 231.875C397.262 231.775 397.262 231.66 397.302 231.563C397.543 230.938 398.02 230.432 398.63 230.155C398.931 230.038 399.253 229.986 399.575 230H399.57ZM383.364 242.89C383.672 242.814 383.993 242.8 384.307 242.85C384.621 242.899 384.922 243.011 385.192 243.179C385.462 243.346 385.696 243.566 385.879 243.825C386.063 244.084 386.192 244.378 386.26 244.688C386.456 245.498 386.348 245.908 386.105 246.328C385.859 246.747 385.341 247.265 384.226 247.657L372.089 250.782C371.724 250.879 371.385 251.057 371.099 251.303C370.813 251.549 370.586 251.856 370.436 252.201C370.285 252.547 370.215 252.922 370.23 253.298C370.245 253.674 370.345 254.043 370.523 254.375L372.793 258.515C372.951 258.803 373.166 259.057 373.423 259.262C373.681 259.467 373.976 259.619 374.293 259.71C374.61 259.801 374.941 259.828 375.269 259.79C375.596 259.752 375.913 259.65 376.2 259.49C376.488 259.332 376.742 259.118 376.947 258.861C377.152 258.605 377.305 258.31 377.396 257.995C377.486 257.68 377.514 257.349 377.476 257.023C377.439 256.697 377.337 256.382 377.177 256.095L376.473 254.845L385.714 252.42C385.789 252.403 385.869 252.372 385.947 252.345C387.886 251.67 389.442 250.517 390.412 248.907C391.19 247.589 391.52 246.054 391.351 244.532C392.083 245.322 393.023 245.977 394.09 246.407C395.447 246.956 396.937 247.092 398.372 246.799C399.806 246.507 401.122 245.798 402.156 244.763V257.5C402.156 264.433 396.576 270 389.628 270H376.396C370.883 270 366.04 266.425 364.416 261.172L362.537 254.923C362.329 254.248 361.918 251.885 362.222 250.155C362.693 247.47 363.868 246.435 364.963 245.78C366.06 245.128 366.842 245.08 366.842 245.08H367L383.128 242.968C383.208 242.95 383.286 242.92 383.364 242.892V242.89Z" fill="#84D4CE" stroke="#84D4CE" mask="url(#path-3-inside-1_75_13245)"/>
<path d="M124.31 316.216C123.35 316.216 122.454 316.088 121.622 315.832C120.79 315.56 120.102 315.184 119.558 314.704L120.23 313.336C120.822 313.8 121.462 314.144 122.15 314.368C122.854 314.592 123.582 314.704 124.334 314.704C125.294 314.704 126.014 314.536 126.494 314.2C126.99 313.848 127.238 313.368 127.238 312.76C127.238 312.296 127.078 311.928 126.758 311.656C126.454 311.368 125.95 311.144 125.246 310.984L123.014 310.528C121.99 310.304 121.222 309.928 120.71 309.4C120.198 308.856 119.942 308.168 119.942 307.336C119.942 306.632 120.126 306.016 120.494 305.488C120.862 304.944 121.398 304.52 122.102 304.216C122.806 303.896 123.63 303.736 124.574 303.736C125.454 303.736 126.262 303.872 126.998 304.144C127.75 304.4 128.374 304.776 128.87 305.272L128.174 306.616C127.694 306.152 127.142 305.808 126.518 305.584C125.91 305.344 125.278 305.224 124.622 305.224C123.678 305.224 122.966 305.416 122.486 305.8C122.022 306.168 121.79 306.656 121.79 307.264C121.79 307.728 121.934 308.112 122.222 308.416C122.526 308.704 122.99 308.92 123.614 309.064L125.846 309.52C126.934 309.76 127.742 310.136 128.27 310.648C128.814 311.144 129.086 311.816 129.086 312.664C129.086 313.384 128.886 314.016 128.486 314.56C128.086 315.088 127.526 315.496 126.806 315.784C126.102 316.072 125.27 316.216 124.31 316.216ZM137.561 316.216C135.673 316.216 134.185 315.672 133.097 314.584C132.009 313.48 131.465 311.952 131.465 310C131.465 308.736 131.705 307.64 132.185 306.712C132.665 305.768 133.337 305.04 134.201 304.528C135.065 304 136.057 303.736 137.177 303.736C138.281 303.736 139.209 303.968 139.961 304.432C140.713 304.896 141.289 305.56 141.689 306.424C142.089 307.272 142.289 308.28 142.289 309.448V310.168H132.953V308.944H141.017L140.609 309.256C140.609 307.976 140.321 306.976 139.745 306.256C139.169 305.536 138.313 305.176 137.177 305.176C135.977 305.176 135.041 305.6 134.369 306.448C133.697 307.28 133.361 308.408 133.361 309.832V310.048C133.361 311.552 133.729 312.696 134.465 313.48C135.217 314.248 136.265 314.632 137.609 314.632C138.329 314.632 139.001 314.528 139.625 314.32C140.265 314.096 140.873 313.736 141.449 313.24L142.121 314.608C141.593 315.12 140.921 315.52 140.105 315.808C139.305 316.08 138.457 316.216 137.561 316.216ZM145.263 316V306.736C145.263 306.288 145.239 305.832 145.191 305.368C145.159 304.888 145.119 304.416 145.071 303.952H146.943L147.183 306.592H146.895C147.247 305.664 147.807 304.96 148.575 304.48C149.359 303.984 150.263 303.736 151.287 303.736C152.711 303.736 153.783 304.12 154.503 304.888C155.239 305.64 155.607 306.832 155.607 308.464V316H153.663V308.584C153.663 307.448 153.431 306.624 152.967 306.112C152.519 305.584 151.815 305.32 150.855 305.32C149.735 305.32 148.847 305.664 148.191 306.352C147.535 307.04 147.207 307.96 147.207 309.112V316H145.263ZM163.886 316.216C162.83 316.216 161.902 315.968 161.102 315.472C160.302 314.96 159.678 314.24 159.23 313.312C158.798 312.384 158.582 311.272 158.582 309.976C158.582 308.664 158.798 307.544 159.23 306.616C159.678 305.688 160.302 304.976 161.102 304.48C161.902 303.984 162.83 303.736 163.886 303.736C164.974 303.736 165.91 304.008 166.694 304.552C167.494 305.096 168.03 305.832 168.302 306.76H168.014V298.336H169.958V316H168.038V313.12H168.302C168.046 314.08 167.518 314.84 166.718 315.4C165.918 315.944 164.974 316.216 163.886 316.216ZM164.294 314.632C165.43 314.632 166.342 314.24 167.03 313.456C167.718 312.656 168.062 311.496 168.062 309.976C168.062 308.44 167.718 307.28 167.03 306.496C166.342 305.696 165.43 305.296 164.294 305.296C163.158 305.296 162.246 305.696 161.558 306.496C160.886 307.28 160.55 308.44 160.55 309.976C160.55 311.496 160.886 312.656 161.558 313.456C162.246 314.24 163.158 314.632 164.294 314.632ZM179.974 316V306.736C179.974 306.288 179.95 305.832 179.902 305.368C179.87 304.888 179.83 304.416 179.782 303.952H181.654L181.894 306.592H181.606C181.926 305.68 182.43 304.976 183.118 304.48C183.822 303.984 184.67 303.736 185.662 303.736C186.67 303.736 187.486 303.976 188.11 304.456C188.75 304.936 189.182 305.68 189.406 306.688H189.046C189.35 305.776 189.886 305.056 190.654 304.528C191.422 304 192.318 303.736 193.342 303.736C194.67 303.736 195.67 304.12 196.342 304.888C197.014 305.64 197.35 306.832 197.35 308.464V316H195.406V308.584C195.406 307.448 195.206 306.624 194.806 306.112C194.406 305.584 193.766 305.32 192.886 305.32C191.878 305.32 191.078 305.672 190.486 306.376C189.91 307.064 189.622 307.992 189.622 309.16V316H187.678V308.584C187.678 307.448 187.478 306.624 187.078 306.112C186.678 305.584 186.038 305.32 185.158 305.32C184.15 305.32 183.358 305.672 182.782 306.376C182.206 307.064 181.918 307.992 181.918 309.16V316H179.974ZM205.988 316.216C204.836 316.216 203.828 315.968 202.964 315.472C202.116 314.96 201.46 314.24 200.996 313.312C200.532 312.368 200.3 311.256 200.3 309.976C200.3 308.68 200.532 307.568 200.996 306.64C201.46 305.712 202.116 305 202.964 304.504C203.828 303.992 204.836 303.736 205.988 303.736C207.156 303.736 208.164 303.992 209.012 304.504C209.876 305 210.54 305.712 211.004 306.64C211.484 307.568 211.724 308.68 211.724 309.976C211.724 311.256 211.484 312.368 211.004 313.312C210.54 314.24 209.876 314.96 209.012 315.472C208.164 315.968 207.156 316.216 205.988 316.216ZM205.988 314.632C207.14 314.632 208.052 314.24 208.724 313.456C209.396 312.656 209.732 311.496 209.732 309.976C209.732 308.44 209.388 307.28 208.7 306.496C208.028 305.696 207.124 305.296 205.988 305.296C204.852 305.296 203.948 305.696 203.276 306.496C202.604 307.28 202.268 308.44 202.268 309.976C202.268 311.496 202.604 312.656 203.276 313.456C203.948 314.24 204.852 314.632 205.988 314.632ZM214.755 316V306.736C214.755 306.288 214.731 305.832 214.683 305.368C214.651 304.888 214.611 304.416 214.563 303.952H216.435L216.675 306.592H216.387C216.739 305.664 217.299 304.96 218.067 304.48C218.851 303.984 219.755 303.736 220.779 303.736C222.203 303.736 223.275 304.12 223.995 304.888C224.731 305.64 225.099 306.832 225.099 308.464V316H223.155V308.584C223.155 307.448 222.923 306.624 222.459 306.112C222.011 305.584 221.307 305.32 220.347 305.32C219.227 305.32 218.339 305.664 217.683 306.352C217.027 307.04 216.699 307.96 216.699 309.112V316H214.755ZM234.17 316.216C232.282 316.216 230.794 315.672 229.706 314.584C228.618 313.48 228.074 311.952 228.074 310C228.074 308.736 228.314 307.64 228.794 306.712C229.274 305.768 229.946 305.04 230.81 304.528C231.674 304 232.666 303.736 233.786 303.736C234.89 303.736 235.818 303.968 236.57 304.432C237.322 304.896 237.898 305.56 238.298 306.424C238.698 307.272 238.898 308.28 238.898 309.448V310.168H229.562V308.944H237.626L237.218 309.256C237.218 307.976 236.93 306.976 236.354 306.256C235.778 305.536 234.922 305.176 233.786 305.176C232.586 305.176 231.65 305.6 230.978 306.448C230.306 307.28 229.97 308.408 229.97 309.832V310.048C229.97 311.552 230.338 312.696 231.074 313.48C231.826 314.248 232.874 314.632 234.218 314.632C234.938 314.632 235.61 314.528 236.234 314.32C236.874 314.096 237.482 313.736 238.058 313.24L238.73 314.608C238.202 315.12 237.53 315.52 236.714 315.808C235.914 316.08 235.066 316.216 234.17 316.216ZM241.252 321.448L240.796 319.84C241.548 319.664 242.172 319.456 242.668 319.216C243.18 318.992 243.604 318.688 243.94 318.304C244.276 317.92 244.564 317.44 244.804 316.864L245.428 315.448L245.38 316.264L240.124 303.952H242.236L246.58 314.536H245.956L250.252 303.952H252.292L246.724 317.008C246.404 317.776 246.052 318.416 245.668 318.928C245.284 319.456 244.868 319.88 244.42 320.2C243.988 320.536 243.508 320.8 242.98 320.992C242.452 321.184 241.876 321.336 241.252 321.448ZM263.956 316L259.492 303.952H261.556L265.276 314.56H264.652L268.492 303.952H270.172L273.94 314.56H273.34L277.084 303.952H279.052L274.564 316H272.692L268.804 305.224H269.764L265.852 316H263.956ZM281.599 316V303.952H283.543V316H281.599ZM281.359 301.216V299.032H283.759V301.216H281.359ZM291.59 316.216C290.406 316.216 289.502 315.88 288.878 315.208C288.254 314.52 287.942 313.488 287.942 312.112V305.464H285.59V303.952H287.942V300.664L289.886 300.112V303.952H293.342V305.464H289.886V311.896C289.886 312.856 290.046 313.544 290.366 313.96C290.702 314.36 291.198 314.56 291.854 314.56C292.158 314.56 292.43 314.536 292.67 314.488C292.91 314.424 293.126 314.352 293.318 314.272V315.904C293.094 316 292.822 316.072 292.502 316.12C292.198 316.184 291.894 316.216 291.59 316.216ZM295.709 316V298.336H297.653V306.616H297.34C297.677 305.672 298.237 304.96 299.021 304.48C299.821 303.984 300.741 303.736 301.781 303.736C303.221 303.736 304.293 304.128 304.997 304.912C305.701 305.68 306.053 306.848 306.053 308.416V316H304.109V308.536C304.109 307.416 303.885 306.6 303.437 306.088C303.005 305.576 302.301 305.32 301.325 305.32C300.205 305.32 299.309 305.664 298.637 306.352C297.981 307.04 297.653 307.944 297.653 309.064V316H295.709ZM316.029 321.184V306.736C316.029 306.288 316.005 305.832 315.957 305.368C315.925 304.888 315.885 304.416 315.837 303.952H317.709L317.973 306.808H317.685C317.941 305.864 318.461 305.12 319.245 304.576C320.029 304.016 320.965 303.736 322.053 303.736C323.141 303.736 324.077 303.984 324.861 304.48C325.661 304.976 326.285 305.688 326.733 306.616C327.181 307.544 327.405 308.664 327.405 309.976C327.405 311.272 327.181 312.384 326.733 313.312C326.301 314.24 325.685 314.96 324.885 315.472C324.085 315.968 323.141 316.216 322.053 316.216C320.981 316.216 320.053 315.944 319.269 315.4C318.485 314.856 317.965 314.112 317.709 313.168H317.973V321.184H316.029ZM321.669 314.632C322.821 314.632 323.733 314.24 324.405 313.456C325.093 312.656 325.437 311.496 325.437 309.976C325.437 308.44 325.093 307.28 324.405 306.496C323.733 305.696 322.821 305.296 321.669 305.296C320.533 305.296 319.621 305.696 318.933 306.496C318.261 307.28 317.925 308.44 317.925 309.976C317.925 311.496 318.261 312.656 318.933 313.456C319.621 314.24 320.533 314.632 321.669 314.632ZM330.371 316V306.856C330.371 306.376 330.355 305.888 330.323 305.392C330.307 304.896 330.275 304.416 330.227 303.952H332.099L332.339 306.88L332.003 306.904C332.163 306.184 332.443 305.592 332.843 305.128C333.243 304.664 333.715 304.32 334.259 304.096C334.803 303.856 335.371 303.736 335.963 303.736C336.203 303.736 336.411 303.744 336.587 303.76C336.779 303.776 336.955 303.816 337.115 303.88L337.091 305.608C336.851 305.528 336.627 305.48 336.419 305.464C336.227 305.432 336.003 305.416 335.747 305.416C335.043 305.416 334.427 305.584 333.899 305.92C333.387 306.256 332.995 306.688 332.723 307.216C332.467 307.744 332.339 308.304 332.339 308.896V316H330.371ZM339.138 316V303.952H341.082V316H339.138ZM338.898 301.216V299.032H341.298V301.216H338.898ZM348.409 316L343.249 303.952H345.361L349.681 314.56H349.033L353.401 303.952H355.417L350.257 316H348.409ZM361.957 316.216C360.885 316.216 359.949 315.968 359.149 315.472C358.349 314.96 357.725 314.24 357.277 313.312C356.845 312.384 356.629 311.272 356.629 309.976C356.629 308.664 356.845 307.544 357.277 306.616C357.725 305.688 358.349 304.976 359.149 304.48C359.949 303.984 360.885 303.736 361.957 303.736C363.045 303.736 363.981 304.016 364.765 304.576C365.565 305.12 366.093 305.864 366.349 306.808H366.061L366.325 303.952H368.197C368.149 304.416 368.101 304.888 368.053 305.368C368.021 305.832 368.005 306.288 368.005 306.736V316H366.061V313.168H366.325C366.069 314.112 365.541 314.856 364.741 315.4C363.941 315.944 363.013 316.216 361.957 316.216ZM362.341 314.632C363.493 314.632 364.405 314.24 365.077 313.456C365.749 312.656 366.085 311.496 366.085 309.976C366.085 308.44 365.749 307.28 365.077 306.496C364.405 305.696 363.493 305.296 362.341 305.296C361.205 305.296 360.293 305.696 359.605 306.496C358.933 307.28 358.597 308.44 358.597 309.976C358.597 311.496 358.933 312.656 359.605 313.456C360.293 314.24 361.205 314.632 362.341 314.632ZM376.827 316.216C375.643 316.216 374.611 315.96 373.731 315.448C372.867 314.936 372.195 314.208 371.715 313.264C371.251 312.32 371.019 311.2 371.019 309.904C371.019 308.592 371.259 307.48 371.739 306.568C372.219 305.64 372.891 304.936 373.755 304.456C374.635 303.976 375.659 303.736 376.827 303.736C377.595 303.736 378.339 303.872 379.059 304.144C379.795 304.416 380.403 304.8 380.883 305.296L380.187 306.688C379.707 306.224 379.179 305.88 378.603 305.656C378.043 305.432 377.491 305.32 376.947 305.32C375.699 305.32 374.731 305.712 374.043 306.496C373.355 307.28 373.011 308.424 373.011 309.928C373.011 311.416 373.355 312.568 374.043 313.384C374.731 314.2 375.699 314.608 376.947 314.608C377.475 314.608 378.019 314.504 378.579 314.296C379.155 314.088 379.691 313.744 380.187 313.264L380.883 314.632C380.387 315.144 379.771 315.536 379.035 315.808C378.299 316.08 377.563 316.216 376.827 316.216ZM383.26 321.448L382.804 319.84C383.556 319.664 384.18 319.456 384.676 319.216C385.188 318.992 385.612 318.688 385.948 318.304C386.284 317.92 386.572 317.44 386.812 316.864L387.436 315.448L387.388 316.264L382.132 303.952H384.244L388.588 314.536H387.964L392.26 303.952H394.3L388.732 317.008C388.412 317.776 388.06 318.416 387.676 318.928C387.292 319.456 386.876 319.88 386.428 320.2C385.996 320.536 385.516 320.8 384.988 320.992C384.46 321.184 383.884 321.336 383.26 321.448Z" fill="white"/>
</svg>
