<svg width="1000" height="1000" viewBox="0 0 1000 1000" fill="none" xmlns="http://www.w3.org/2000/svg">
<rect width="1000" height="1000" fill="#0BAB9E"/>
<path d="M283.019 548V537.504L323.467 491.552V495.392H283.019V483.36H337.931V493.856L297.099 540.192L296.971 535.968H339.339V548H283.019ZM382.936 549.28C372.099 549.28 363.608 546.293 357.464 540.32C351.32 534.347 348.248 526.155 348.248 515.744C348.248 509.003 349.571 503.115 352.216 498.08C354.861 493.045 358.531 489.12 363.224 486.304C368.003 483.488 373.549 482.08 379.864 482.08C386.093 482.08 391.299 483.403 395.48 486.048C399.661 488.693 402.819 492.405 404.952 497.184C407.171 501.963 408.28 507.552 408.28 513.952V518.176H361.176V509.728H396.888L394.712 511.52C394.712 505.547 393.432 500.981 390.872 497.824C388.397 494.667 384.771 493.088 379.992 493.088C374.701 493.088 370.605 494.965 367.704 498.72C364.888 502.475 363.48 507.723 363.48 514.464V516.128C363.48 523.125 365.187 528.373 368.6 531.872C372.099 535.285 377.005 536.992 383.32 536.992C386.989 536.992 390.403 536.523 393.56 535.584C396.803 534.56 399.875 532.939 402.776 530.72L407.512 541.472C404.44 543.947 400.771 545.867 396.504 547.232C392.237 548.597 387.715 549.28 382.936 549.28ZM421.829 548V499.488C421.829 496.843 421.744 494.155 421.573 491.424C421.402 488.693 421.146 486.005 420.805 483.36H436.293L437.573 496.16H436.037C438.085 491.637 441.114 488.181 445.125 485.792C449.136 483.317 453.786 482.08 459.077 482.08C466.672 482.08 472.389 484.213 476.229 488.48C480.069 492.747 481.989 499.403 481.989 508.448V548H465.989V509.216C465.989 504.011 464.965 500.299 462.917 498.08C460.954 495.776 457.968 494.624 453.957 494.624C449.008 494.624 445.082 496.16 442.181 499.232C439.28 502.304 437.829 506.4 437.829 511.52V548H421.829ZM498.954 548V499.488C498.954 496.843 498.869 494.155 498.698 491.424C498.527 488.693 498.271 486.005 497.93 483.36H513.418L514.698 496.16H513.162C514.954 491.723 517.685 488.267 521.354 485.792C525.109 483.317 529.546 482.08 534.666 482.08C539.786 482.08 544.01 483.317 547.338 485.792C550.751 488.181 553.141 491.936 554.506 497.056H552.458C554.25 492.448 557.194 488.821 561.29 486.176C565.386 483.445 570.079 482.08 575.37 482.08C582.623 482.08 588.042 484.213 591.626 488.48C595.21 492.747 597.002 499.403 597.002 508.448V548H581.002V509.088C581.002 503.968 580.149 500.299 578.442 498.08C576.735 495.776 574.005 494.624 570.25 494.624C565.813 494.624 562.314 496.203 559.754 499.36C557.194 502.432 555.914 506.613 555.914 511.904V548H539.914V509.088C539.914 503.968 539.061 500.299 537.354 498.08C535.647 495.776 532.917 494.624 529.162 494.624C524.725 494.624 521.226 496.203 518.666 499.36C516.191 502.432 514.954 506.613 514.954 511.904V548H498.954ZM643.263 549.28C636.607 549.28 630.847 547.915 625.983 545.184C621.119 542.453 617.322 538.571 614.591 533.536C611.946 528.501 610.623 522.528 610.623 515.616C610.623 508.704 611.946 502.773 614.591 497.824C617.322 492.789 621.119 488.907 625.983 486.176C630.847 483.445 636.607 482.08 643.263 482.08C649.919 482.08 655.679 483.445 660.543 486.176C665.492 488.907 669.29 492.789 671.935 497.824C674.666 502.773 676.031 508.704 676.031 515.616C676.031 522.528 674.666 528.501 671.935 533.536C669.29 538.571 665.492 542.453 660.543 545.184C655.679 547.915 649.919 549.28 643.263 549.28ZM643.263 536.992C648.298 536.992 652.308 535.243 655.295 531.744C658.282 528.16 659.775 522.784 659.775 515.616C659.775 508.448 658.282 503.115 655.295 499.616C652.308 496.117 648.298 494.368 643.263 494.368C638.228 494.368 634.218 496.117 631.231 499.616C628.244 503.115 626.751 508.448 626.751 515.616C626.751 522.784 628.244 528.16 631.231 531.744C634.218 535.243 638.228 536.992 643.263 536.992Z" fill="white"/>
<mask id="path-3-inside-1_75_11936" fill="white">
<path d="M726.243 436C718.723 436 712.529 442.194 712.529 449.714V456.713L711.958 454.857C709.777 447.662 702.01 443.534 694.815 445.714C687.619 447.895 683.491 455.662 685.672 462.857L697.53 501.431C696.671 501.769 695.747 502.162 694.815 502.711C690.993 504.997 686.673 509.623 685.384 517.001C684.424 522.464 685.475 527.269 686.243 529.856V530.002L689.814 541.431C691.831 547.966 695.888 553.683 701.391 557.745C706.893 561.806 713.552 563.998 720.392 564H744.529C762.152 564 776.529 549.623 776.529 532V485.714C776.492 485.573 776.438 485.426 776.387 485.285C775.976 480.251 772.922 475.552 767.957 473.573C764.511 472.197 760.885 472.393 757.672 473.714C756.175 470.809 753.695 468.531 750.673 467.287C748.96 466.61 747.128 466.286 745.286 466.334C743.445 466.383 741.632 466.803 739.957 467.57V449.714C739.957 442.194 733.763 436 726.243 436ZM726.243 445.143C728.831 445.143 730.815 447.127 730.815 449.714V479.858L726.102 491.858C725.438 493.541 725.099 495.334 725.1 497.143L706.385 499.57L694.527 460.142C694.339 459.57 694.268 458.966 694.318 458.366C694.368 457.765 694.538 457.182 694.818 456.648C695.098 456.115 695.483 455.644 695.949 455.263C696.414 454.881 696.952 454.597 697.53 454.427C699.994 453.678 702.495 455.109 703.244 457.573L712.671 488.855L717.814 487.287H721.672V449.714C721.672 447.127 723.656 445.143 726.243 445.143ZM745.388 475.429C745.974 475.41 746.655 475.483 747.244 475.717C747.81 475.937 748.327 476.268 748.764 476.69C749.2 477.113 749.548 477.618 749.787 478.176C750.027 478.735 750.152 479.335 750.157 479.943C750.161 480.55 750.044 481.152 749.814 481.714L744.959 493.856V493.998L743.098 498.715C743.011 498.962 742.796 499.072 742.673 499.287C740.307 497.417 737.399 496.365 734.385 496.288C734.44 495.945 734.385 495.625 734.531 495.282L741.388 478.286C742.102 476.48 743.619 475.465 745.388 475.429ZM762.668 481.714C763.281 481.714 763.921 481.769 764.529 482.002C765.367 482.325 766.088 482.892 766.598 483.631C767.108 484.37 767.382 485.246 767.386 486.144V486.286C767.386 486.839 767.313 487.447 767.098 488L761.955 500.713C761.735 501.28 761.404 501.797 760.982 502.234C760.56 502.671 760.055 503.019 759.497 503.259C758.938 503.499 758.338 503.625 757.73 503.629C757.122 503.634 756.52 503.518 755.957 503.287C753.567 502.322 752.566 499.675 753.53 497.285L758.385 485.143C758.458 484.96 758.458 484.75 758.531 484.571C758.97 483.429 759.84 482.504 760.954 481.998C761.503 481.784 762.09 481.688 762.677 481.714H762.668ZM733.1 505.285C733.663 505.145 734.249 505.12 734.822 505.211C735.395 505.302 735.944 505.506 736.436 505.813C736.929 506.119 737.355 506.521 737.69 506.995C738.024 507.469 738.261 508.005 738.385 508.571C738.742 510.053 738.545 510.802 738.102 511.57C737.654 512.338 736.707 513.285 734.673 514.002L712.529 519.717C711.863 519.894 711.246 520.219 710.724 520.668C710.202 521.118 709.788 521.679 709.513 522.311C709.238 522.942 709.11 523.628 709.137 524.316C709.165 525.005 709.348 525.678 709.672 526.286L713.814 533.856C714.103 534.383 714.494 534.847 714.964 535.222C715.434 535.597 715.973 535.876 716.551 536.041C717.129 536.207 717.734 536.257 718.331 536.188C718.928 536.119 719.506 535.932 720.031 535.639C720.556 535.349 721.019 534.959 721.394 534.49C721.768 534.02 722.046 533.482 722.212 532.905C722.377 532.328 722.427 531.725 722.359 531.128C722.291 530.532 722.105 529.955 721.814 529.431L720.529 527.145L737.388 522.711C737.526 522.679 737.672 522.624 737.814 522.574C741.352 521.339 744.191 519.232 745.96 516.288C747.38 513.877 747.982 511.07 747.674 508.288C749.009 509.733 750.723 510.93 752.671 511.717C755.147 512.719 757.865 512.968 760.482 512.433C763.1 511.898 765.501 510.602 767.386 508.709V532C767.386 544.677 757.205 554.857 744.529 554.857H720.387C710.33 554.857 701.494 548.32 698.531 538.715L695.103 527.287C694.723 526.053 693.974 521.733 694.527 518.569C695.386 513.659 697.53 511.767 699.528 510.569C701.53 509.376 702.956 509.289 702.956 509.289H703.244L732.671 505.426C732.817 505.394 732.959 505.339 733.1 505.289V505.285Z"/>
</mask>
<path d="M726.243 436C718.723 436 712.529 442.194 712.529 449.714V456.713L711.958 454.857C709.777 447.662 702.01 443.534 694.815 445.714C687.619 447.895 683.491 455.662 685.672 462.857L697.53 501.431C696.671 501.769 695.747 502.162 694.815 502.711C690.993 504.997 686.673 509.623 685.384 517.001C684.424 522.464 685.475 527.269 686.243 529.856V530.002L689.814 541.431C691.831 547.966 695.888 553.683 701.391 557.745C706.893 561.806 713.552 563.998 720.392 564H744.529C762.152 564 776.529 549.623 776.529 532V485.714C776.492 485.573 776.438 485.426 776.387 485.285C775.976 480.251 772.922 475.552 767.957 473.573C764.511 472.197 760.885 472.393 757.672 473.714C756.175 470.809 753.695 468.531 750.673 467.287C748.96 466.61 747.128 466.286 745.286 466.334C743.445 466.383 741.632 466.803 739.957 467.57V449.714C739.957 442.194 733.763 436 726.243 436ZM726.243 445.143C728.831 445.143 730.815 447.127 730.815 449.714V479.858L726.102 491.858C725.438 493.541 725.099 495.334 725.1 497.143L706.385 499.57L694.527 460.142C694.339 459.57 694.268 458.966 694.318 458.366C694.368 457.765 694.538 457.182 694.818 456.648C695.098 456.115 695.483 455.644 695.949 455.263C696.414 454.881 696.952 454.597 697.53 454.427C699.994 453.678 702.495 455.109 703.244 457.573L712.671 488.855L717.814 487.287H721.672V449.714C721.672 447.127 723.656 445.143 726.243 445.143ZM745.388 475.429C745.974 475.41 746.655 475.483 747.244 475.717C747.81 475.937 748.327 476.268 748.764 476.69C749.2 477.113 749.548 477.618 749.787 478.176C750.027 478.735 750.152 479.335 750.157 479.943C750.161 480.55 750.044 481.152 749.814 481.714L744.959 493.856V493.998L743.098 498.715C743.011 498.962 742.796 499.072 742.673 499.287C740.307 497.417 737.399 496.365 734.385 496.288C734.44 495.945 734.385 495.625 734.531 495.282L741.388 478.286C742.102 476.48 743.619 475.465 745.388 475.429ZM762.668 481.714C763.281 481.714 763.921 481.769 764.529 482.002C765.367 482.325 766.088 482.892 766.598 483.631C767.108 484.37 767.382 485.246 767.386 486.144V486.286C767.386 486.839 767.313 487.447 767.098 488L761.955 500.713C761.735 501.28 761.404 501.797 760.982 502.234C760.56 502.671 760.055 503.019 759.497 503.259C758.938 503.499 758.338 503.625 757.73 503.629C757.122 503.634 756.52 503.518 755.957 503.287C753.567 502.322 752.566 499.675 753.53 497.285L758.385 485.143C758.458 484.96 758.458 484.75 758.531 484.571C758.97 483.429 759.84 482.504 760.954 481.998C761.503 481.784 762.09 481.688 762.677 481.714H762.668ZM733.1 505.285C733.663 505.145 734.249 505.12 734.822 505.211C735.395 505.302 735.944 505.506 736.436 505.813C736.929 506.119 737.355 506.521 737.69 506.995C738.024 507.469 738.261 508.005 738.385 508.571C738.742 510.053 738.545 510.802 738.102 511.57C737.654 512.338 736.707 513.285 734.673 514.002L712.529 519.717C711.863 519.894 711.246 520.219 710.724 520.668C710.202 521.118 709.788 521.679 709.513 522.311C709.238 522.942 709.11 523.628 709.137 524.316C709.165 525.005 709.348 525.678 709.672 526.286L713.814 533.856C714.103 534.383 714.494 534.847 714.964 535.222C715.434 535.597 715.973 535.876 716.551 536.041C717.129 536.207 717.734 536.257 718.331 536.188C718.928 536.119 719.506 535.932 720.031 535.639C720.556 535.349 721.019 534.959 721.394 534.49C721.768 534.02 722.046 533.482 722.212 532.905C722.377 532.328 722.427 531.725 722.359 531.128C722.291 530.532 722.105 529.955 721.814 529.431L720.529 527.145L737.388 522.711C737.526 522.679 737.672 522.624 737.814 522.574C741.352 521.339 744.191 519.232 745.96 516.288C747.38 513.877 747.982 511.07 747.674 508.288C749.009 509.733 750.723 510.93 752.671 511.717C755.147 512.719 757.865 512.968 760.482 512.433C763.1 511.898 765.501 510.602 767.386 508.709V532C767.386 544.677 757.205 554.857 744.529 554.857H720.387C710.33 554.857 701.494 548.32 698.531 538.715L695.103 527.287C694.723 526.053 693.974 521.733 694.527 518.569C695.386 513.659 697.53 511.767 699.528 510.569C701.53 509.376 702.956 509.289 702.956 509.289H703.244L732.671 505.426C732.817 505.394 732.959 505.339 733.1 505.289V505.285Z" fill="#84D4CE" stroke="#0BAB9E" mask="url(#path-3-inside-1_75_11936)"/>
<path d="M236.121 639.432C234.201 639.432 232.409 639.176 230.745 638.664C229.081 638.12 227.705 637.368 226.617 636.408L227.961 633.672C229.145 634.6 230.425 635.288 231.801 635.736C233.209 636.184 234.665 636.408 236.169 636.408C238.089 636.408 239.529 636.072 240.489 635.4C241.481 634.696 241.977 633.736 241.977 632.52C241.977 631.592 241.657 630.856 241.017 630.312C240.409 629.736 239.401 629.288 237.993 628.968L233.529 628.056C231.481 627.608 229.945 626.856 228.921 625.8C227.897 624.712 227.385 623.336 227.385 621.672C227.385 620.264 227.753 619.032 228.489 617.976C229.225 616.888 230.297 616.04 231.705 615.432C233.113 614.792 234.761 614.472 236.648 614.472C238.409 614.472 240.025 614.744 241.497 615.288C243.001 615.8 244.249 616.552 245.241 617.544L243.849 620.232C242.889 619.304 241.785 618.616 240.537 618.168C239.321 617.688 238.057 617.448 236.745 617.448C234.857 617.448 233.433 617.832 232.473 618.6C231.545 619.336 231.081 620.312 231.081 621.528C231.081 622.456 231.369 623.224 231.945 623.832C232.553 624.408 233.481 624.84 234.729 625.128L239.193 626.04C241.369 626.52 242.985 627.272 244.041 628.296C245.129 629.288 245.673 630.632 245.673 632.328C245.673 633.768 245.273 635.032 244.473 636.12C243.673 637.176 242.553 637.992 241.113 638.568C239.705 639.144 238.041 639.432 236.121 639.432ZM262.621 639.432C258.845 639.432 255.869 638.344 253.693 636.168C251.517 633.96 250.429 630.904 250.429 627C250.429 624.472 250.909 622.28 251.869 620.424C252.829 618.536 254.173 617.08 255.901 616.056C257.629 615 259.613 614.472 261.853 614.472C264.061 614.472 265.917 614.936 267.421 615.864C268.925 616.792 270.077 618.12 270.877 619.848C271.677 621.544 272.077 623.56 272.077 625.896V627.336H253.405V624.888H269.533L268.717 625.512C268.717 622.952 268.141 620.952 266.989 619.512C265.837 618.072 264.125 617.352 261.853 617.352C259.453 617.352 257.581 618.2 256.237 619.896C254.893 621.56 254.221 623.816 254.221 626.664V627.096C254.221 630.104 254.957 632.392 256.429 633.96C257.933 635.496 260.029 636.264 262.717 636.264C264.157 636.264 265.501 636.056 266.749 635.64C268.029 635.192 269.245 634.472 270.397 633.48L271.741 636.216C270.685 637.24 269.341 638.04 267.709 638.616C266.109 639.16 264.413 639.432 262.621 639.432ZM278.026 639V620.472C278.026 619.576 277.978 618.664 277.882 617.736C277.818 616.776 277.738 615.832 277.642 614.904H281.386L281.866 620.184H281.29C281.994 618.328 283.114 616.92 284.65 615.96C286.218 614.968 288.026 614.472 290.074 614.472C292.922 614.472 295.066 615.24 296.506 616.776C297.978 618.28 298.714 620.664 298.714 623.928V639H294.826V624.168C294.826 621.896 294.362 620.248 293.434 619.224C292.538 618.168 291.13 617.64 289.21 617.64C286.97 617.64 285.194 618.328 283.882 619.704C282.57 621.08 281.914 622.92 281.914 625.224V639H278.026ZM315.271 639.432C313.159 639.432 311.303 638.936 309.703 637.944C308.103 636.92 306.855 635.48 305.959 633.624C305.095 631.768 304.663 629.544 304.663 626.952C304.663 624.328 305.095 622.088 305.959 620.232C306.855 618.376 308.103 616.952 309.703 615.96C311.303 614.968 313.159 614.472 315.271 614.472C317.447 614.472 319.319 615.016 320.887 616.104C322.487 617.192 323.559 618.664 324.103 620.52H323.527V603.672H327.415V639H323.575V633.24H324.103C323.591 635.16 322.535 636.68 320.935 637.8C319.335 638.888 317.447 639.432 315.271 639.432ZM316.087 636.264C318.359 636.264 320.183 635.48 321.559 633.912C322.935 632.312 323.623 629.992 323.623 626.952C323.623 623.88 322.935 621.56 321.559 619.992C320.183 618.392 318.359 617.592 316.087 617.592C313.815 617.592 311.991 618.392 310.615 619.992C309.271 621.56 308.599 623.88 308.599 626.952C308.599 629.992 309.271 632.312 310.615 633.912C311.991 635.48 313.815 636.264 316.087 636.264ZM347.448 639V620.472C347.448 619.576 347.4 618.664 347.304 617.736C347.24 616.776 347.16 615.832 347.064 614.904H350.808L351.288 620.184H350.712C351.352 618.36 352.36 616.952 353.736 615.96C355.144 614.968 356.84 614.472 358.824 614.472C360.84 614.472 362.472 614.952 363.72 615.912C365 616.872 365.864 618.36 366.312 620.376H365.592C366.2 618.552 367.272 617.112 368.808 616.056C370.344 615 372.136 614.472 374.184 614.472C376.84 614.472 378.84 615.24 380.184 616.776C381.528 618.28 382.2 620.664 382.2 623.928V639H378.312V624.168C378.312 621.896 377.912 620.248 377.112 619.224C376.312 618.168 375.032 617.64 373.272 617.64C371.256 617.64 369.656 618.344 368.472 619.752C367.32 621.128 366.744 622.984 366.744 625.32V639H362.856V624.168C362.856 621.896 362.456 620.248 361.656 619.224C360.856 618.168 359.576 617.64 357.816 617.64C355.8 617.64 354.216 618.344 353.064 619.752C351.912 621.128 351.336 622.984 351.336 625.32V639H347.448ZM399.477 639.432C397.173 639.432 395.157 638.936 393.429 637.944C391.733 636.92 390.421 635.48 389.493 633.624C388.565 631.736 388.101 629.512 388.101 626.952C388.101 624.36 388.565 622.136 389.493 620.28C390.421 618.424 391.733 617 393.429 616.008C395.157 614.984 397.173 614.472 399.477 614.472C401.813 614.472 403.829 614.984 405.525 616.008C407.253 617 408.581 618.424 409.509 620.28C410.469 622.136 410.949 624.36 410.949 626.952C410.949 629.512 410.469 631.736 409.509 633.624C408.581 635.48 407.253 636.92 405.525 637.944C403.829 638.936 401.813 639.432 399.477 639.432ZM399.477 636.264C401.781 636.264 403.605 635.48 404.949 633.912C406.293 632.312 406.965 629.992 406.965 626.952C406.965 623.88 406.277 621.56 404.901 619.992C403.557 618.392 401.749 617.592 399.477 617.592C397.205 617.592 395.397 618.392 394.053 619.992C392.709 621.56 392.037 623.88 392.037 626.952C392.037 629.992 392.709 632.312 394.053 633.912C395.397 635.48 397.205 636.264 399.477 636.264ZM417.011 639V620.472C417.011 619.576 416.963 618.664 416.867 617.736C416.803 616.776 416.723 615.832 416.627 614.904H420.371L420.851 620.184H420.275C420.979 618.328 422.099 616.92 423.635 615.96C425.203 614.968 427.011 614.472 429.059 614.472C431.907 614.472 434.051 615.24 435.491 616.776C436.963 618.28 437.699 620.664 437.699 623.928V639H433.811V624.168C433.811 621.896 433.347 620.248 432.419 619.224C431.523 618.168 430.115 617.64 428.195 617.64C425.955 617.64 424.179 618.328 422.867 619.704C421.555 621.08 420.899 622.92 420.899 625.224V639H417.011ZM455.84 639.432C452.064 639.432 449.088 638.344 446.912 636.168C444.736 633.96 443.648 630.904 443.648 627C443.648 624.472 444.128 622.28 445.088 620.424C446.048 618.536 447.392 617.08 449.12 616.056C450.848 615 452.832 614.472 455.072 614.472C457.28 614.472 459.136 614.936 460.64 615.864C462.144 616.792 463.296 618.12 464.096 619.848C464.896 621.544 465.296 623.56 465.296 625.896V627.336H446.624V624.888H462.752L461.936 625.512C461.936 622.952 461.36 620.952 460.208 619.512C459.056 618.072 457.344 617.352 455.072 617.352C452.672 617.352 450.8 618.2 449.456 619.896C448.112 621.56 447.44 623.816 447.44 626.664V627.096C447.44 630.104 448.176 632.392 449.648 633.96C451.152 635.496 453.248 636.264 455.936 636.264C457.376 636.264 458.72 636.056 459.968 635.64C461.248 635.192 462.464 634.472 463.616 633.48L464.96 636.216C463.904 637.24 462.56 638.04 460.928 638.616C459.328 639.16 457.632 639.432 455.84 639.432ZM470.004 649.896L469.092 646.68C470.596 646.328 471.844 645.912 472.836 645.432C473.86 644.984 474.708 644.376 475.38 643.608C476.052 642.84 476.628 641.88 477.108 640.728L478.356 637.896L478.26 639.528L467.748 614.904H471.972L480.66 636.072H479.412L488.004 614.904H492.084L480.948 641.016C480.308 642.552 479.604 643.832 478.836 644.856C478.068 645.912 477.236 646.76 476.34 647.4C475.476 648.072 474.516 648.6 473.46 648.984C472.404 649.368 471.252 649.672 470.004 649.896ZM515.412 639L506.484 614.904H510.612L518.052 636.12H516.804L524.484 614.904H527.844L535.38 636.12H534.18L541.668 614.904H545.604L536.628 639H532.884L525.108 617.448H527.028L519.204 639H515.412ZM550.698 639V614.904H554.586V639H550.698ZM550.218 609.432V605.064H555.018V609.432H550.218ZM570.68 639.432C568.312 639.432 566.504 638.76 565.256 637.416C564.008 636.04 563.384 633.976 563.384 631.224V617.928H558.68V614.904H563.384V608.328L567.272 607.224V614.904H574.184V617.928H567.272V630.792C567.272 632.712 567.592 634.088 568.232 634.92C568.904 635.72 569.896 636.12 571.208 636.12C571.816 636.12 572.36 636.072 572.84 635.976C573.32 635.848 573.752 635.704 574.136 635.544V638.808C573.688 639 573.144 639.144 572.504 639.24C571.896 639.368 571.288 639.432 570.68 639.432ZM578.917 639V603.672H582.805V620.232H582.181C582.853 618.344 583.973 616.92 585.541 615.96C587.141 614.968 588.981 614.472 591.061 614.472C593.941 614.472 596.085 615.256 597.493 616.824C598.901 618.36 599.605 620.696 599.605 623.832V639H595.717V624.072C595.717 621.832 595.269 620.2 594.373 619.176C593.509 618.152 592.101 617.64 590.149 617.64C587.909 617.64 586.117 618.328 584.773 619.704C583.461 621.08 582.805 622.888 582.805 625.128V639H578.917ZM619.558 649.368V620.472C619.558 619.576 619.51 618.664 619.414 617.736C619.35 616.776 619.27 615.832 619.174 614.904H622.918L623.446 620.616H622.87C623.382 618.728 624.422 617.24 625.99 616.152C627.558 615.032 629.43 614.472 631.606 614.472C633.782 614.472 635.654 614.968 637.222 615.96C638.822 616.952 640.07 618.376 640.966 620.232C641.862 622.088 642.31 624.328 642.31 626.952C642.31 629.544 641.862 631.768 640.966 633.624C640.102 635.48 638.87 636.92 637.27 637.944C635.67 638.936 633.782 639.432 631.606 639.432C629.462 639.432 627.606 638.888 626.038 637.8C624.47 636.712 623.43 635.224 622.918 633.336H623.446V649.368H619.558ZM630.838 636.264C633.142 636.264 634.966 635.48 636.31 633.912C637.686 632.312 638.374 629.992 638.374 626.952C638.374 623.88 637.686 621.56 636.31 619.992C634.966 618.392 633.142 617.592 630.838 617.592C628.566 617.592 626.742 618.392 625.366 619.992C624.022 621.56 623.35 623.88 623.35 626.952C623.35 629.992 624.022 632.312 625.366 633.912C626.742 635.48 628.566 636.264 630.838 636.264ZM648.243 639V620.712C648.243 619.752 648.211 618.776 648.147 617.784C648.115 616.792 648.051 615.832 647.955 614.904H651.699L652.179 620.76L651.507 620.808C651.827 619.368 652.387 618.184 653.187 617.256C653.987 616.328 654.931 615.64 656.019 615.192C657.107 614.712 658.243 614.472 659.427 614.472C659.907 614.472 660.323 614.488 660.675 614.52C661.059 614.552 661.411 614.632 661.731 614.76L661.683 618.216C661.203 618.056 660.755 617.96 660.339 617.928C659.955 617.864 659.507 617.832 658.995 617.832C657.587 617.832 656.355 618.168 655.299 618.84C654.275 619.512 653.491 620.376 652.947 621.432C652.435 622.488 652.179 623.608 652.179 624.792V639H648.243ZM665.776 639V614.904H669.664V639H665.776ZM665.296 609.432V605.064H670.096V609.432H665.296ZM684.318 639L673.998 614.904H678.222L686.862 636.12H685.566L694.302 614.904H698.334L688.014 639H684.318ZM711.413 639.432C709.269 639.432 707.397 638.936 705.797 637.944C704.197 636.92 702.949 635.48 702.053 633.624C701.189 631.768 700.757 629.544 700.757 626.952C700.757 624.328 701.189 622.088 702.053 620.232C702.949 618.376 704.197 616.952 705.797 615.96C707.397 614.968 709.269 614.472 711.413 614.472C713.589 614.472 715.461 615.032 717.029 616.152C718.629 617.24 719.685 618.728 720.197 620.616H719.621L720.149 614.904H723.893C723.797 615.832 723.701 616.776 723.605 617.736C723.541 618.664 723.509 619.576 723.509 620.472V639H719.621V633.336H720.149C719.637 635.224 718.581 636.712 716.981 637.8C715.381 638.888 713.525 639.432 711.413 639.432ZM712.181 636.264C714.485 636.264 716.309 635.48 717.653 633.912C718.997 632.312 719.669 629.992 719.669 626.952C719.669 623.88 718.997 621.56 717.653 619.992C716.309 618.392 714.485 617.592 712.181 617.592C709.909 617.592 708.085 618.392 706.709 619.992C705.365 621.56 704.693 623.88 704.693 626.952C704.693 629.992 705.365 632.312 706.709 633.912C708.085 635.48 709.909 636.264 712.181 636.264ZM741.154 639.432C738.786 639.432 736.722 638.92 734.962 637.896C733.234 636.872 731.89 635.416 730.93 633.528C730.002 631.64 729.538 629.4 729.538 626.808C729.538 624.184 730.018 621.96 730.978 620.136C731.938 618.28 733.282 616.872 735.01 615.912C736.77 614.952 738.818 614.472 741.154 614.472C742.69 614.472 744.178 614.744 745.618 615.288C747.09 615.832 748.306 616.6 749.266 617.592L747.874 620.376C746.914 619.448 745.858 618.76 744.706 618.312C743.586 617.864 742.482 617.64 741.394 617.64C738.898 617.64 736.962 618.424 735.586 619.992C734.21 621.56 733.522 623.848 733.522 626.856C733.522 629.832 734.21 632.136 735.586 633.768C736.962 635.4 738.898 636.216 741.394 636.216C742.45 636.216 743.538 636.008 744.658 635.592C745.81 635.176 746.882 634.488 747.874 633.528L749.266 636.264C748.274 637.288 747.042 638.072 745.57 638.616C744.098 639.16 742.626 639.432 741.154 639.432ZM754.02 649.896L753.108 646.68C754.612 646.328 755.86 645.912 756.852 645.432C757.876 644.984 758.724 644.376 759.396 643.608C760.068 642.84 760.644 641.88 761.124 640.728L762.372 637.896L762.276 639.528L751.764 614.904H755.988L764.676 636.072H763.428L772.02 614.904H776.1L764.964 641.016C764.324 642.552 763.62 643.832 762.852 644.856C762.084 645.912 761.252 646.76 760.356 647.4C759.492 648.072 758.532 648.6 757.476 648.984C756.42 649.368 755.268 649.672 754.02 649.896Z" fill="white"/>
</svg>
